<svg xmlns="http://www.w3.org/2000/svg" viewBox="0 0 381.429 229.911"><title>MLB primary light logo</title><path d="M31.139 204.99C13.942 204.99 0 191.046 0 173.849V31.141C0 13.941 13.942 0 31.139 0h319.154c17.194 0 31.136 13.941 31.136 31.141v142.708c0 17.197-13.942 31.141-31.136 31.141H31.139z" fill="#fff"/><path d="M364.972 16.464a20.624 20.624 0 0 0-14.679-6.08h-89.231l51.335 85.65 4.692.582 2.737 3.91.005 3.711 3.325.589 2.934 4.102.003 3.522 3.323.58s3.327 3.519 3.327 3.717l.005 8.014s7.235 6.642 13.691 9.177c4.497 1.756 5.085 8.996 7.631 12.906 3.522 5.468 8.212 7.813 7.237 10.942-2.339 8.405-10.935 22.487-18.952 23.277 0 0-19.94.006-31.673.018l.009 13.533h39.604c11.446 0 20.759-9.319 20.759-20.763V31.141a20.642 20.642 0 0 0-6.082-14.677z" fill="#d50032"/><path d="M230.643 10.383H31.139a20.615 20.615 0 0 0-14.677 6.08A20.617 20.617 0 0 0 10.38 31.14v142.708a20.62 20.62 0 0 0 6.082 14.683 20.618 20.618 0 0 0 14.677 6.08h129.6c-3.256-5.421-6.902-11.578-8.026-13.45l-15.443.003c-.024-38.312 13.064-59.631 28.51-63.745 2.149-.393 1.167-10.951-1.572-14.08 0 0-7.429.201-8.995-.189-1.956-.582-.587-2.537-.587-2.537l7.223-15.647-.978-4.303-26.784.021c-.392-.006 22.084-15.464 22.084-15.464 1.15-40.66 42.794-43.81 68.021-27.015 14.863 9.966 16.048 29.52 14.881 43.203-.194.781-3.908.195-3.908.195s-2.531 14.858 4.109 14.858l29.329-.015c11.925-.399 23.462 7.612 23.462 7.612l2.926-10.17-64.348-83.505zM53.294 165.24c-7.872.003-14.256-6.379-14.259-14.245-.006-7.875 6.37-14.257 14.243-14.266 7.872-.003 14.253 6.376 14.257 14.245.006 7.872-6.369 14.257-14.241 14.266z" fill="#002d72"/><path d="M371.711 214.719c3.649 0 6.61 2.848 6.61 6.672 0 3.809-2.96 6.686-6.61 6.686-3.663 0-6.613-2.877-6.613-6.686.001-3.824 2.951-6.672 6.613-6.672zm0 15.192c4.718 0 8.461-3.779 8.461-8.52 0-4.744-3.742-8.52-8.461-8.52-4.726 0-8.461 3.777-8.461 8.52 0 4.741 3.735 8.52 8.461 8.52zm1.776-7.66c1.566-.101 2.412-.984 2.412-2.626 0-2.333-1.402-2.7-3.436-2.7h-4.31v8.854h1.856v-3.528h1.55l2.057 3.528h2.027l-2.156-3.528zm-3.479-1.585v-2.141h2.037c.867 0 2.043 0 2.043.958 0 .97-.602 1.183-1.597 1.183h-2.483z" fill="#fff"/></svg>