<svg xmlns="http://www.w3.org/2000/svg" viewBox="0 0 1084 576"><title>MLB logo</title><path fill="#ECECEC" d="M0 0h1084v576H0z"/><g opacity=".08"><path d="M622.684 230.973A10.18 10.18 0 0 0 615.48 228l-156.328.152a10.105 10.105 0 0 0-7.183 2.98c-1.92 1.92-2.987 4.474-2.97 7.196l.06 69.905a10.12 10.12 0 0 0 2.99 7.187 10.1 10.1 0 0 0 7.182 2.977l156.34-.152c5.608 0 10.173-4.57 10.173-10.177l-.085-69.91c0-2.712-1.065-5.257-2.976-7.185z" fill="#FFF"/><path d="M622.684 230.973A10.18 10.18 0 0 0 615.48 228l-43.692.05 25.19 41.93 2.274.286 1.353 1.907.016 1.814 1.617.304 1.454 1.997v1.725l1.617.292s1.63 1.713 1.63 1.805l.027 3.922s3.534 3.26 6.688 4.5c2.224.86 2.495 4.396 3.772 6.316 1.708 2.67 4.008 3.826 3.535 5.365-1.134 4.11-5.354 11.014-9.277 11.398 0 0-9.784.022-15.517.03v6.625l19.406-.02c5.607 0 10.172-4.57 10.172-10.178l-.085-69.91c0-2.71-1.065-5.256-2.976-7.184z"/><path d="M556.897 228.068l-97.745.084a10.105 10.105 0 0 0-7.183 2.98c-1.92 1.92-2.987 4.474-2.97 7.196l.06 69.905a10.12 10.12 0 0 0 2.99 7.187 10.1 10.1 0 0 0 7.182 2.977l63.495-.063c-1.593-2.65-3.387-5.67-3.948-6.588l-7.557.013c-.034-18.773 6.363-29.216 13.923-31.237 1.062-.195.576-5.37-.77-6.9 0 0-3.63.1-4.396-.09-.956-.29-.3-1.237-.3-1.237l3.54-7.674-.483-2.11-13.128.026c-.187 0 10.81-7.58 10.81-7.58.55-19.92 20.946-21.478 33.325-13.268 7.272 4.884 7.873 14.46 7.298 21.153-.094.384-1.912.1-1.912.1s-1.24 7.28 2.03 7.28l14.35-.024c5.835-.204 11.5 3.707 11.5 3.707l1.42-4.968-31.533-40.872zm-86.816 75.92c-3.86.014-6.984-3.107-6.996-6.967a6.992 6.992 0 0 1 6.976-6.992c3.848-.01 6.976 3.116 6.985 6.976a6.968 6.968 0 0 1-6.964 6.985zm70.192 44.047c.87 0 1.624.296 2.258.918.626.604.947"/></g></svg>
